<?xml version="1.0" encoding="UTF-8"?>
<svg version="1.1" xmlns="http://www.w3.org/2000/svg" width="47" height="42">
<path d="M0 0 C1.14831299 0.0167981 1.14831299 0.0167981 2.31982422 0.03393555 C5.69507801 0.20477453 7.92254255 0.38283052 10.76171875 2.2890625 C12.1875 4.125 12.1875 4.125 13.3671875 6.06640625 C14.81073469 8.17511735 15.94581994 8.67619269 18.3125 9.5625 C21.5625 10.8125 21.5625 10.8125 23.5625 13.8125 C24.0036952 17.94404796 23.88664476 22.09747977 23.875 26.25 C23.89111328 27.39533203 23.90722656 28.54066406 23.92382812 29.72070312 C23.92447266 30.82220703 23.92511719 31.92371094 23.92578125 33.05859375 C23.92876221 34.06591553 23.93174316 35.0732373 23.93481445 36.11108398 C23.47971791 39.41314516 23.16233528 40.6809406 20.5625 42.8125 C17.46246652 43.19236863 14.72301645 43.32581251 11.625 43.2734375 C10.74851807 43.27252106 9.87203613 43.27160461 8.96899414 43.2706604 C7.1163186 43.26461978 5.26365303 43.24885992 3.41113281 43.22412109 C0.57320219 43.18763758 -2.26342199 43.18310153 -5.1015625 43.18359375 C-6.90105296 43.17376167 -8.70053457 43.16210427 -10.5 43.1484375 C-11.35005615 43.14621185 -12.2001123 43.14398621 -13.07592773 43.14169312 C-19.08922671 43.04468219 -19.08922671 43.04468219 -22.4375 40.8125 C-24.00526025 36.10921926 -23.66329311 31.36360228 -23.6875 26.4375 C-23.708125 25.3959375 -23.72875 24.354375 -23.75 23.28125 C-23.79999033 13.50814029 -23.79999033 13.50814029 -20.4375 9.8125 C-19.32375 9.338125 -18.21 8.86375 -17.0625 8.375 C-13.24742021 7.09805645 -13.24742021 7.09805645 -11.23828125 3.765625 C-8.08011823 -0.19405059 -4.82988885 -0.15201143 0 0 Z M-8.83984375 8.23046875 C-10.61289248 10.58990077 -10.61289248 10.58990077 -10.4375 12.8125 C-12.1390625 13.0290625 -12.1390625 13.0290625 -13.875 13.25 C-17.24527201 13.42421478 -17.24527201 13.42421478 -18.4375 14.8125 C-18.5366657 16.43507544 -18.56829777 18.06189831 -18.5703125 19.6875 C-18.57160156 20.67234375 -18.57289062 21.6571875 -18.57421875 22.671875 C-18.57035156 23.70828125 -18.56648438 24.7446875 -18.5625 25.8125 C-18.56636719 26.84890625 -18.57023437 27.8853125 -18.57421875 28.953125 C-18.57292969 29.93796875 -18.57164063 30.9228125 -18.5703125 31.9375 C-18.56918457 32.84757812 -18.56805664 33.75765625 -18.56689453 34.6953125 C-18.67310009 36.7977848 -18.67310009 36.7977848 -17.4375 37.8125 C-14.7712397 37.90105161 -12.13102886 37.92774673 -9.46484375 37.91015625 C-8.66720108 37.9087413 -7.86955841 37.90732635 -7.04774475 37.90586853 C-4.49012565 37.90025316 -1.93259282 37.88769812 0.625 37.875 C2.35481645 37.86998698 4.08463426 37.86542373 5.81445312 37.86132812 C10.06386239 37.85112791 14.31308416 37.83155568 18.5625 37.8125 C18.5625 30.2225 18.5625 22.6325 18.5625 14.8125 C16.2525 13.8225 13.9425 12.8325 11.5625 11.8125 C10.86125 10.760625 10.16 9.70875 9.4375 8.625 C7.57546083 6.11720313 6.65938821 5.83031852 3.50390625 5.25 C-3.34198669 4.73995228 -3.34198669 4.73995228 -8.83984375 8.23046875 Z " fill="#ACACAC" transform="translate(23.4375,-0.8125)"/>
<path d="M0 0 C2.87029869 1.79393668 4.49131638 2.98263276 6 6 C6.42071592 9.05920574 6.48514117 11.9467746 6 15 C3.81840855 17.75569447 2.12822506 19.43588747 -1 21 C-6.86390959 21.67660495 -6.86390959 21.67660495 -9.7578125 19.953125 C-11.93626824 18.16405507 -13.72957812 16.54084375 -15 14 C-15.37712577 9.00308353 -15.09290612 6.00932275 -12 2 C-7.98141405 -0.6790573 -4.72358279 -0.69610694 0 0 Z M-10 7 C-10.53520921 10.21125525 -10.51113607 12.06792834 -8.9375 14.9375 C-5.81857551 16.64787795 -3.34442199 15.80513863 0 15 C1.41441874 12.17116253 1.31900332 10.12623255 1 7 C-3.03425852 2.96574148 -5.64656126 3.56307468 -10 7 Z " fill="#ACACAC" transform="translate(28,13)"/>
</svg>
